<?xml version="1.0" standalone="no"?>
<!DOCTYPE svg PUBLIC "-//W3C//DTD SVG 20010904//EN"
 "http://www.w3.org/TR/2001/REC-SVG-20010904/DTD/svg10.dtd">
<svg version="1.0"
        xmlns="http://www.w3.org/2000/svg" width="130.000000pt" height="237.000000pt" viewBox="0 0 130.000000 237.000000" preserveAspectRatio="xMidYMid meet">
        <g transform="translate(0.000000,237.000000) scale(0.100000,-0.100000)" fill="#ffffff" stroke="none">
                <path d="M880 2313 c-89 -58 -127 -130 -114 -213 8 -52 17 -56 55 -29 43 30 61 78 53 138 -6 44 -4 51 26 84 34 39 24 48 -20 20z m-40 -142 c0 -45 -23 -72 -38 -45 -10 18 -5 51 11 72 17 22 27 13 27 -27z"/>
                <path d="M262 2103 c3 -90 7 -105 33 -148 34 -54 82 -84 141 -88 l39 -2 -3 45 c-1 25 -13 65 -25 90 -20 42 -25 45 -65 48 -37 3 -46 8 -66 40 -13 20 -27 52 -31 69 -4 18 -11 36 -17 39 -7 5 -9 -25 -6 -93z m163 -134 c16 -47 9 -71 -19 -63 -46 15 -88 59 -99 105 l-7 27 57 -18 c50 -15 59 -22 68 -51z"/>
                <path d="M664 2010 c-131 -31 -196 -151 -196 -365 -1 -179 30 -334 120 -595 31 -93 36 -117 36 -210 1 -96 -1 -110 -28 -164 -16 -32 -42 -74 -59 -93 -37 -42 -135 -106 -152 -99 -15 5 -21 121 -32 581 -9 406 -20 341 -31 -175 -7 -339 -6 -399 7 -420 8 -14 73 -107 145 -208 72 -100 138 -194 146 -207 8 -14 18 -25 22 -25 4 0 68 102 143 228 l136 227 -5 315 c-7 370 -16 560 -26 560 -7 0 -20 -459 -20 -706 0 -73 -4 -144 -10 -158 -9 -24 -13 -26 -52 -20 -24 4 -46 12 -50 18 -11 16 1 70 34 161 25 67 31 99 35 198 5 102 2 130 -18 205 -27 102 -82 213 -175 354 -87 133 -118 213 -109 288 18 158 63 232 155 256 53 14 57 13 106 -11 29 -14 68 -43 88 -65 31 -34 36 -47 36 -89 0 -38 -6 -57 -30 -90 -33 -45 -83 -81 -113 -81 -30 0 -75 38 -87 74 -19 57 6 94 79 117 26 7 26 7 3 8 -13 1 -39 -6 -57 -14 -104 -50 -46 -211 75 -207 85 2 170 105 170 207 0 62 -48 128 -129 177 -65 38 -94 44 -157 28z m-124 -515 c0 -4 35 -61 78 -128 147 -228 167 -287 167 -482 0 -132 -2 -146 -33 -234 -17 -51 -32 -111 -32 -132 l0 -38 -55 -6 c-53 -7 -162 -2 -171 8 -3 2 18 26 45 52 28 27 64 76 83 114 32 64 33 69 33 191 0 120 -2 130 -42 250 -49 144 -103 359 -103 408 0 30 2 32 15 18 8 -8 15 -17 15 -21z m293 -1048 c-123 -201 -135 -217 -157 -202 -27 20 -65 19 -88 -2 -10 -9 -20 -14 -22 -12 -1 2 -29 41 -60 86 -32 46 -62 85 -67 88 -5 4 -13 14 -18 24 -9 16 0 17 137 13 81 -2 174 1 207 6 33 5 64 10 68 11 4 0 4 -5 0 -12z m-140 -246 c11 -11 -35 -91 -51 -91 -11 0 -47 39 -61 68 -10 19 -9 24 11 32 26 11 86 6 101 -9z"/>
                <path d="M1026 1847 c-48 -27 -53 -40 -27 -66 29 -29 108 -29 145 0 l28 22 28 -22 c48 -35 57 -24 15 20 -72 74 -120 86 -189 46z m97 -32 c-4 -21 -83 -25 -83 -5 0 10 35 18 65 16 11 0 19 -5 18 -11z"/>
        </g>
</svg> 